<svg xmlns="http://www.w3.org/2000/svg" viewBox="0 0 100 100">
  <defs>
    <linearGradient id="grad" x1="0%" y1="0%" x2="100%" y2="100%">
      <stop offset="0%" style="stop-color:#9b87f5;stop-opacity:1" />
      <stop offset="50%" style="stop-color:#7E69AB;stop-opacity:1" />
      <stop offset="100%" style="stop-color:#6E59A5;stop-opacity:1" />
    </linearGradient>
    <linearGradient id="moonGrad" x1="0%" y1="0%" x2="100%" y2="100%">
      <stop offset="0%" style="stop-color:#D6BCFA;stop-opacity:1" />
      <stop offset="100%" style="stop-color:#9b87f5;stop-opacity:1" />
    </linearGradient>
  </defs>

  <!-- Background -->
  <rect width="100" height="100" rx="20" fill="#1a1625"/>

  <!-- Bank Building -->
  <!-- Foundation -->
  <rect x="15" y="75" width="70" height="5" fill="url(#grad)" opacity="0.9" rx="1"/>

  <!-- Three Classical Pillars -->
  <rect x="20" y="45" width="10" height="30" fill="url(#grad)" opacity="0.85" rx="2"/>
  <rect x="45" y="45" width="10" height="30" fill="url(#grad)" opacity="0.85" rx="2"/>
  <rect x="70" y="45" width="10" height="30" fill="url(#grad)" opacity="0.85" rx="2"/>

  <!-- Pillar capitals -->
  <rect x="17" y="42" width="16" height="4" fill="url(#grad)" rx="1"/>
  <rect x="42" y="42" width="16" height="4" fill="url(#grad)" rx="1"/>
  <rect x="67" y="42" width="16" height="4" fill="url(#grad)" rx="1"/>

  <!-- Triangular Pediment -->
  <path d="M 50 18 L 85 40 L 15 40 Z" fill="url(#grad)" opacity="0.9"/>

  <!-- Moon in center -->
  <circle cx="50" cy="30" r="8" fill="url(#moonGrad)" opacity="0.95"/>
  <circle cx="47" cy="28" r="2" fill="#ffffff" opacity="0.3"/>

  <!-- Futuristic glow lines on pillars -->
  <line x1="25" y1="48" x2="25" y2="73" stroke="#D6BCFA" stroke-width="1" opacity="0.6"/>
  <line x1="50" y1="48" x2="50" y2="73" stroke="#D6BCFA" stroke-width="1" opacity="0.6"/>
  <line x1="75" y1="48" x2="75" y2="73" stroke="#D6BCFA" stroke-width="1" opacity="0.6"/>
</svg>
